<svg width="20" height="20" viewBox="0 0 20 20" fill="none" xmlns="http://www.w3.org/2000/svg">
<path fill-rule="evenodd" clip-rule="evenodd" d="M19.5975 10.1822C19.5609 4.31666 15.6999 0.385047 9.97603 0.400067C4.41321 0.411333 0.387481 4.46311 0.39846 10.0244C0.39846 10.1596 0.413099 10.291 0.416758 10.4225C0.449696 11.2674 0.566809 12.071 0.779074 12.8295C1.90628 16.8888 5.44526 19.6113 10.0199 19.6C12.2707 19.5962 14.3275 18.9353 15.9634 17.6924L14.2579 15.3342C13.1198 16.2016 11.6485 16.6597 10.0126 16.6672C7.08117 16.6747 4.8048 15.1802 3.80569 12.822C3.50193 12.0973 3.31894 11.2862 3.27503 10.415C3.26771 10.2835 3.25673 10.1521 3.25673 10.0169C3.24941 6.08907 6.01252 3.34408 9.97969 3.33282C14.9496 3.32155 16.7283 6.89267 16.7356 10.2347L16.7393 10.3511V10.3812C16.7466 10.5614 16.71 11.0308 16.4794 11.3688C16.4282 11.4251 16.183 11.564 15.8719 11.564C15.6962 11.564 15.3668 11.5265 15.1619 11.2786C15.0009 11.0834 14.8764 10.7454 14.7849 10.3849C14.6678 9.93056 14.5983 9.42737 14.591 9.07815H14.5763L14.5654 5.76238C14.5654 5.64972 14.4739 5.55584 14.3641 5.55584L11.9413 5.56335C11.8315 5.56335 11.74 5.65723 11.74 5.76989V6.02899C11.052 5.64597 10.2395 5.4094 9.29898 5.41315C6.3785 5.42066 4.55594 7.5423 4.5596 10.1521C4.5596 10.2422 4.56692 10.3286 4.57058 10.415C4.61449 11.3087 4.87068 12.1311 5.31351 12.822C6.11133 14.0612 7.50204 14.876 9.31728 14.8685C10.9239 14.8648 12.1792 14.2076 12.999 13.1975C13.6943 14.0274 14.7374 14.508 15.8756 14.5043C17.0723 14.5005 18.2251 13.9335 18.8217 13.0511C18.8802 12.9647 18.9278 12.8746 18.9754 12.7844C19.517 11.8344 19.5975 10.8506 19.5939 10.3737C19.6012 10.2986 19.5975 10.231 19.5975 10.1822ZM11.4875 10.3962C11.3741 11.4814 10.5689 12.3226 9.31728 12.3263C8.06564 12.3301 7.25684 11.4889 7.13972 10.4075C7.12874 10.3211 7.11411 10.2347 7.11411 10.1446C7.11045 8.93921 7.95585 7.95537 9.30264 7.95161C10.6567 7.94786 11.5058 8.92794 11.5095 10.1333C11.5095 10.2235 11.4948 10.3098 11.4875 10.3962Z" fill="white"/>
</svg>
