<svg width="20" height="20" viewBox="0 0 20 20" fill="none" xmlns="http://www.w3.org/2000/svg">
<path d="M10.0012 5.07837C8.69446 5.07837 7.44127 5.59746 6.51729 6.52144C5.59331 7.44542 5.07422 8.69861 5.07422 10.0053C5.07422 11.312 5.59331 12.5652 6.51729 13.4892C7.44127 14.4132 8.69446 14.9323 10.0012 14.9323C11.3079 14.9323 12.5611 14.4132 13.485 13.4892C14.409 12.5652 14.9281 11.312 14.9281 10.0053C14.9281 8.69861 14.409 7.44542 13.485 6.52144C12.5611 5.59746 11.3079 5.07837 10.0012 5.07837ZM10.0012 13.2051C9.15226 13.2051 8.33812 12.8678 7.73785 12.2676C7.13758 11.6673 6.80035 10.8532 6.80035 10.0042C6.80035 9.15534 7.13758 8.3412 7.73785 7.74093C8.33812 7.14067 9.15226 6.80344 10.0012 6.80344C10.8501 6.80344 11.6642 7.14067 12.2645 7.74093C12.8647 8.3412 13.202 9.15534 13.202 10.0042C13.202 10.8532 12.8647 11.6673 12.2645 12.2676C11.6642 12.8678 10.8501 13.2051 10.0012 13.2051Z" fill="white"/>
<path d="M15.1213 6.04591C15.7556 6.04591 16.2699 5.53165 16.2699 4.89728C16.2699 4.26291 15.7556 3.74866 15.1213 3.74866C14.4869 3.74866 13.9727 4.26291 13.9727 4.89728C13.9727 5.53165 14.4869 6.04591 15.1213 6.04591Z" fill="white"/>
<path d="M19.0936 3.72941C18.8469 3.09243 18.47 2.51396 17.9869 2.03104C17.5038 1.54813 16.9252 1.1714 16.2881 0.924976C15.5426 0.645126 14.755 0.493806 13.9589 0.47746C12.9328 0.432708 12.6078 0.419922 10.0058 0.419922C7.40384 0.419922 7.07034 0.419922 6.05277 0.47746C5.25724 0.49297 4.47022 0.644321 3.72568 0.924976C3.08844 1.17111 2.50968 1.54774 2.02654 2.03069C1.54341 2.51365 1.16656 3.09226 0.920182 3.72941C0.640276 4.47486 0.489303 5.26252 0.473731 6.05863C0.427914 7.08365 0.414062 7.40864 0.414062 10.0117C0.414062 12.6137 0.414062 12.9451 0.473731 13.9648C0.489714 14.7618 0.639952 15.5481 0.920182 16.295C1.16725 16.932 1.54446 17.5103 2.02772 17.9932C2.51097 18.4761 3.08964 18.8529 3.72675 19.0995C4.46988 19.3906 5.25723 19.5527 6.0549 19.579C7.08099 19.6237 7.40597 19.6376 10.008 19.6376C12.61 19.6376 12.9435 19.6376 13.961 19.579C14.7571 19.5628 15.5446 19.4118 16.2902 19.1325C16.9272 18.8855 17.5056 18.5085 17.9886 18.0254C18.4717 17.5424 18.8487 16.9639 19.0957 16.327C19.376 15.5811 19.5262 14.7948 19.5422 13.9978C19.588 12.9728 19.6019 12.6478 19.6019 10.0447C19.6019 7.44167 19.6019 7.11136 19.5422 6.09166C19.5298 5.28429 19.378 4.48513 19.0936 3.72941ZM17.7958 13.8859C17.7889 14.5 17.6769 15.1083 17.4644 15.6845C17.3044 16.0988 17.0595 16.4751 16.7453 16.7891C16.4311 17.1031 16.0547 17.3478 15.6403 17.5076C15.0705 17.719 14.4686 17.8311 13.8609 17.839C12.8486 17.8858 12.5631 17.8976 9.96747 17.8976C7.36975 17.8976 7.10443 17.8976 6.07301 17.839C5.46559 17.8315 4.864 17.7194 4.29467 17.5076C3.87878 17.3488 3.50086 17.1045 3.18535 16.7905C2.86984 16.4764 2.62377 16.0996 2.46305 15.6845C2.25362 15.1145 2.14159 14.5133 2.13167 13.9061C2.08586 12.8939 2.0752 12.6084 2.0752 10.0128C2.0752 7.4161 2.0752 7.15078 2.13167 6.1183C2.13856 5.50459 2.25064 4.8966 2.46305 4.32077C2.78803 3.48008 3.45398 2.8184 4.29467 2.49661C4.86428 2.28579 5.4657 2.17372 6.07301 2.16524C7.08632 2.11942 7.37081 2.10663 9.96747 2.10663C12.5641 2.10663 12.8305 2.10663 13.8609 2.16524C14.4686 2.17255 15.0706 2.28465 15.6403 2.49661C16.0547 2.65673 16.431 2.90172 16.7452 3.21587C17.0593 3.53001 17.3043 3.90636 17.4644 4.32077C17.6739 4.89077 17.7859 5.49195 17.7958 6.09912C17.8416 7.11242 17.8534 7.39692 17.8534 9.99358C17.8534 12.5892 17.8534 12.8683 17.8075 13.887H17.7958V13.8859Z" fill="white"/>
</svg>
