<svg width="19" height="16" viewBox="0 0 19 16" fill="none" xmlns="http://www.w3.org/2000/svg">
<path d="M0.613963 7.799C2.52361 6.75571 4.6553 5.88497 6.64704 5.00978C10.0736 3.57628 13.5138 2.16762 16.9887 0.856182C17.6648 0.632726 18.8796 0.414197 18.9987 1.40794C18.9335 2.81457 18.6652 4.21296 18.4811 5.61135C18.014 8.68655 17.4741 11.7512 16.9476 14.8163C16.7662 15.8372 15.4767 16.3658 14.6516 15.7124C12.6687 14.3839 10.6706 13.0685 8.71298 11.7092C8.07173 11.063 8.66636 10.1349 9.23906 9.6734C10.8722 8.07707 12.6042 6.7208 14.1521 5.04198C14.5696 4.04196 13.336 4.88475 12.9291 5.14297C10.6932 6.67112 8.51212 8.29256 6.15486 9.6356C4.95077 10.293 3.54739 9.73119 2.34385 9.36434C1.26471 8.92121 -0.316608 8.47477 0.613854 7.79907L0.613963 7.799Z" fill="white"/>
</svg>
