<svg width="12" height="16" viewBox="0 0 12 16" fill="none" xmlns="http://www.w3.org/2000/svg">
<path fill-rule="evenodd" clip-rule="evenodd" d="M2.12508 5.95716C1.73455 6.34768 1.10139 6.34768 0.710862 5.95716C0.320338 5.56664 0.320338 4.93347 0.710862 4.54295L4.58709 0.666719C5.36814 -0.114329 6.63447 -0.114329 7.41552 0.666719L11.2917 4.54295C11.6823 4.93347 11.6823 5.56664 11.2917 5.95716C10.9012 6.34768 10.2681 6.34768 9.87753 5.95716L6.0013 2.08093L2.12508 5.95716ZM2.12508 10.0429C1.73455 9.65242 1.10139 9.65242 0.710862 10.0429C0.320338 10.4335 0.320338 11.0666 0.710862 11.4572L4.58709 15.3334C5.36814 16.1144 6.63447 16.1144 7.41552 15.3334L11.2917 11.4572C11.6823 11.0666 11.6823 10.4335 11.2917 10.0429C10.9012 9.65242 10.2681 9.65242 9.87753 10.0429L6.0013 13.9192L2.12508 10.0429Z" fill="#000D2E"/>
</svg>
