<svg width="22" height="14" viewBox="0 0 22 14" fill="none" xmlns="http://www.w3.org/2000/svg">
<path fill-rule="evenodd" clip-rule="evenodd" d="M21.1633 1.54563C21.3215 1.04981 21.1633 0.689182 20.4629 0.689182H18.1358C17.5484 0.689182 17.2772 1.00469 17.1191 1.34283C17.1191 1.34283 15.9216 4.22775 14.2497 6.0984C13.7074 6.63934 13.4589 6.81965 13.1652 6.81965C13.007 6.81965 12.8037 6.63934 12.8037 6.14351V1.52307C12.8037 0.937094 12.623 0.666626 12.1259 0.666626H8.46574C8.10423 0.666626 7.87833 0.937094 7.87833 1.20756C7.87833 1.77105 8.71426 1.90625 8.80463 3.48395V6.90981C8.80463 7.65361 8.6691 7.78881 8.37536 7.78881C7.58459 7.78881 5.66415 4.88133 4.51187 1.56818C4.28589 0.914538 4.05999 0.666626 3.47258 0.666626H1.1228C0.445005 0.666626 0.332031 0.982205 0.332031 1.32027C0.332031 1.92881 1.1228 4.99404 4.01477 9.05099C5.93528 11.8232 8.6691 13.3107 11.1318 13.3107C12.623 13.3107 12.8037 12.9727 12.8037 12.4092V10.3132C12.8037 9.63697 12.9393 9.52433 13.4137 9.52433C13.7526 9.52433 14.3627 9.70457 15.7408 11.0344C17.3224 12.612 17.5935 13.3333 18.4747 13.3333H20.8018C21.4796 13.3333 21.796 12.9952 21.6152 12.3416C21.4119 11.688 20.6437 10.7414 19.6496 9.61442C19.1073 8.98339 18.2939 8.2847 18.0454 7.94656C17.7065 7.49585 17.7969 7.31554 18.0454 6.90981C18.0229 6.90981 20.8696 2.89797 21.1633 1.54563Z" fill="white"/>
</svg>
