<svg width="20" height="20" viewBox="0 0 20 20" fill="none" xmlns="http://www.w3.org/2000/svg">
<path fill-rule="evenodd" clip-rule="evenodd" d="M10.0386 19.435H10.0347C8.43471 19.4345 6.86258 19.035 5.46626 18.277L0.398438 19.6L1.75467 14.6699C0.91808 13.227 0.47787 11.5903 0.478588 9.91352C0.480685 4.66782 4.76924 0.400024 10.0385 0.400024C12.5959 0.401123 14.9962 1.39193 16.8011 3.1903C18.606 4.98857 19.5994 7.37891 19.5984 9.92103C19.5963 15.1655 15.3095 19.4329 10.0386 19.435ZM5.70027 16.5546L5.99042 16.726C7.21038 17.4465 8.60881 17.8277 10.0346 17.8283H10.0378C14.4173 17.8283 17.9818 14.2808 17.9835 9.92048C17.9843 7.8075 17.1586 5.82075 15.6585 4.32602C14.1583 2.83129 12.1633 2.00772 10.041 2.00699C5.65811 2.00699 2.09361 5.5541 2.09187 9.91408C2.09126 11.4083 2.51134 12.8634 3.30673 14.1225L3.49565 14.4216L2.69296 17.3397L5.70027 16.5546ZM14.5271 11.9694C14.6937 12.0495 14.8062 12.1036 14.8542 12.1834C14.9139 12.2825 14.9139 12.7585 14.715 13.3139C14.5159 13.8692 13.5616 14.376 13.1026 14.4442C12.6911 14.5055 12.1703 14.531 11.5981 14.35C11.2512 14.2405 10.8063 14.0942 10.2364 13.8493C7.99701 12.8869 6.48368 10.7269 6.19766 10.3187C6.17763 10.2901 6.16361 10.2701 6.15579 10.2597L6.15387 10.2571C6.02746 10.0893 5.18043 8.96456 5.18043 7.80052C5.18043 6.7055 5.72091 6.13154 5.9697 5.86735C5.98674 5.84925 6.00242 5.8326 6.01646 5.81734C6.2354 5.57934 6.4942 5.51984 6.65343 5.51984C6.81266 5.51984 6.97208 5.5213 7.11125 5.52826C7.12842 5.52912 7.14628 5.52902 7.16475 5.52891C7.30395 5.5281 7.47749 5.52708 7.64869 5.93634C7.71455 6.09384 7.81092 6.32734 7.91256 6.5736C8.11811 7.07161 8.34521 7.62185 8.38516 7.70148C8.44489 7.82048 8.48469 7.95925 8.40508 8.11798C8.39312 8.14177 8.38207 8.16423 8.37151 8.18569C8.31171 8.3072 8.26772 8.39658 8.16622 8.51452C8.1263 8.5609 8.08505 8.6109 8.0438 8.66089C7.96162 8.76049 7.87946 8.86008 7.8079 8.93102C7.68832 9.04956 7.56384 9.17817 7.70318 9.41617C7.84252 9.65417 8.32191 10.4326 9.03202 11.063C9.79536 11.7406 10.4588 12.027 10.7951 12.1722C10.8607 12.2005 10.9139 12.2235 10.953 12.2429C11.1917 12.362 11.3311 12.342 11.4704 12.1834C11.6098 12.0248 12.0676 11.4892 12.2268 11.2513C12.386 11.0134 12.5453 11.053 12.7642 11.1323C12.9832 11.2117 14.1576 11.7868 14.3965 11.9057C14.4431 11.929 14.4867 11.9499 14.5271 11.9694Z" fill="#FDFDFD"/>
</svg>
