<svg aria-hidden="true" xmlns="http://www.w3.org/2000/svg" xmlns:xlink="http://www.w3.org/1999/xlink"><symbol viewBox="0 0 20 20" id="envelope" xmlns="http://www.w3.org/2000/svg">
<path fill-rule="evenodd" clip-rule="evenodd" d="M19.5975 10.1822C19.5609 4.31666 15.6999 0.385047 9.97603 0.400067C4.41321 0.411333 0.387481 4.46311 0.39846 10.0244C0.39846 10.1596 0.413099 10.291 0.416758 10.4225C0.449696 11.2674 0.566809 12.071 0.779074 12.8295C1.90628 16.8888 5.44526 19.6113 10.0199 19.6C12.2707 19.5962 14.3275 18.9353 15.9634 17.6924L14.2579 15.3342C13.1198 16.2016 11.6485 16.6597 10.0126 16.6672C7.08117 16.6747 4.8048 15.1802 3.80569 12.822C3.50193 12.0973 3.31894 11.2862 3.27503 10.415C3.26771 10.2835 3.25673 10.1521 3.25673 10.0169C3.24941 6.08907 6.01252 3.34408 9.97969 3.33282C14.9496 3.32155 16.7283 6.89267 16.7356 10.2347L16.7393 10.3511V10.3812C16.7466 10.5614 16.71 11.0308 16.4794 11.3688C16.4282 11.4251 16.183 11.564 15.8719 11.564C15.6962 11.564 15.3668 11.5265 15.1619 11.2786C15.0009 11.0834 14.8764 10.7454 14.7849 10.3849C14.6678 9.93056 14.5983 9.42737 14.591 9.07815H14.5763L14.5654 5.76238C14.5654 5.64972 14.4739 5.55584 14.3641 5.55584L11.9413 5.56335C11.8315 5.56335 11.74 5.65723 11.74 5.76989V6.02899C11.052 5.64597 10.2395 5.4094 9.29898 5.41315C6.3785 5.42066 4.55594 7.5423 4.5596 10.1521C4.5596 10.2422 4.56692 10.3286 4.57058 10.415C4.61449 11.3087 4.87068 12.1311 5.31351 12.822C6.11133 14.0612 7.50204 14.876 9.31728 14.8685C10.9239 14.8648 12.1792 14.2076 12.999 13.1975C13.6943 14.0274 14.7374 14.508 15.8756 14.5043C17.0723 14.5005 18.2251 13.9335 18.8217 13.0511C18.8802 12.9647 18.9278 12.8746 18.9754 12.7844C19.517 11.8344 19.5975 10.8506 19.5939 10.3737C19.6012 10.2986 19.5975 10.231 19.5975 10.1822ZM11.4875 10.3962C11.3741 11.4814 10.5689 12.3226 9.31728 12.3263C8.06564 12.3301 7.25684 11.4889 7.13972 10.4075C7.12874 10.3211 7.11411 10.2347 7.11411 10.1446C7.11045 8.93921 7.95585 7.95537 9.30264 7.95161C10.6567 7.94786 11.5058 8.92794 11.5095 10.1333C11.5095 10.2235 11.4948 10.3098 11.4875 10.3962Z"/>
</symbol><symbol viewBox="0 0 20 20" id="instagram" xmlns="http://www.w3.org/2000/svg">
<path d="M10.0012 5.07837C8.69446 5.07837 7.44127 5.59746 6.51729 6.52144C5.59331 7.44542 5.07422 8.69861 5.07422 10.0053C5.07422 11.312 5.59331 12.5652 6.51729 13.4892C7.44127 14.4132 8.69446 14.9323 10.0012 14.9323C11.3079 14.9323 12.5611 14.4132 13.485 13.4892C14.409 12.5652 14.9281 11.312 14.9281 10.0053C14.9281 8.69861 14.409 7.44542 13.485 6.52144C12.5611 5.59746 11.3079 5.07837 10.0012 5.07837ZM10.0012 13.2051C9.15226 13.2051 8.33812 12.8678 7.73785 12.2676C7.13758 11.6673 6.80035 10.8532 6.80035 10.0042C6.80035 9.15534 7.13758 8.3412 7.73785 7.74093C8.33812 7.14067 9.15226 6.80344 10.0012 6.80344C10.8501 6.80344 11.6642 7.14067 12.2645 7.74093C12.8647 8.3412 13.202 9.15534 13.202 10.0042C13.202 10.8532 12.8647 11.6673 12.2645 12.2676C11.6642 12.8678 10.8501 13.2051 10.0012 13.2051Z"/>
<path d="M15.1213 6.04591C15.7556 6.04591 16.2699 5.53165 16.2699 4.89728C16.2699 4.26291 15.7556 3.74866 15.1213 3.74866C14.4869 3.74866 13.9727 4.26291 13.9727 4.89728C13.9727 5.53165 14.4869 6.04591 15.1213 6.04591Z"/>
<path d="M19.0936 3.72941C18.8469 3.09243 18.47 2.51396 17.9869 2.03104C17.5038 1.54813 16.9252 1.1714 16.2881 0.924976C15.5426 0.645126 14.755 0.493806 13.9589 0.47746C12.9328 0.432708 12.6078 0.419922 10.0058 0.419922C7.40384 0.419922 7.07034 0.419922 6.05277 0.47746C5.25724 0.49297 4.47022 0.644321 3.72568 0.924976C3.08844 1.17111 2.50968 1.54774 2.02654 2.03069C1.54341 2.51365 1.16656 3.09226 0.920182 3.72941C0.640276 4.47486 0.489303 5.26252 0.473731 6.05863C0.427914 7.08365 0.414062 7.40864 0.414062 10.0117C0.414062 12.6137 0.414062 12.9451 0.473731 13.9648C0.489714 14.7618 0.639952 15.5481 0.920182 16.295C1.16725 16.932 1.54446 17.5103 2.02772 17.9932C2.51097 18.4761 3.08964 18.8529 3.72675 19.0995C4.46988 19.3906 5.25723 19.5527 6.0549 19.579C7.08099 19.6237 7.40597 19.6376 10.008 19.6376C12.61 19.6376 12.9435 19.6376 13.961 19.579C14.7571 19.5628 15.5446 19.4118 16.2902 19.1325C16.9272 18.8855 17.5056 18.5085 17.9886 18.0254C18.4717 17.5424 18.8487 16.9639 19.0957 16.327C19.376 15.5811 19.5262 14.7948 19.5422 13.9978C19.588 12.9728 19.6019 12.6478 19.6019 10.0447C19.6019 7.44167 19.6019 7.11136 19.5422 6.09166C19.5298 5.28429 19.378 4.48513 19.0936 3.72941ZM17.7958 13.8859C17.7889 14.5 17.6769 15.1083 17.4644 15.6845C17.3044 16.0988 17.0595 16.4751 16.7453 16.7891C16.4311 17.1031 16.0547 17.3478 15.6403 17.5076C15.0705 17.719 14.4686 17.8311 13.8609 17.839C12.8486 17.8858 12.5631 17.8976 9.96747 17.8976C7.36975 17.8976 7.10443 17.8976 6.07301 17.839C5.46559 17.8315 4.864 17.7194 4.29467 17.5076C3.87878 17.3488 3.50086 17.1045 3.18535 16.7905C2.86984 16.4764 2.62377 16.0996 2.46305 15.6845C2.25362 15.1145 2.14159 14.5133 2.13167 13.9061C2.08586 12.8939 2.0752 12.6084 2.0752 10.0128C2.0752 7.4161 2.0752 7.15078 2.13167 6.1183C2.13856 5.50459 2.25064 4.8966 2.46305 4.32077C2.78803 3.48008 3.45398 2.8184 4.29467 2.49661C4.86428 2.28579 5.4657 2.17372 6.07301 2.16524C7.08632 2.11942 7.37081 2.10663 9.96747 2.10663C12.5641 2.10663 12.8305 2.10663 13.8609 2.16524C14.4686 2.17255 15.0706 2.28465 15.6403 2.49661C16.0547 2.65673 16.431 2.90172 16.7452 3.21587C17.0593 3.53001 17.3043 3.90636 17.4644 4.32077C17.6739 4.89077 17.7859 5.49195 17.7958 6.09912C17.8416 7.11242 17.8534 7.39692 17.8534 9.99358C17.8534 12.5892 17.8534 12.8683 17.8075 13.887H17.7958V13.8859Z"/>
</symbol><symbol viewBox="0 0 7 12" id="left" xmlns="http://www.w3.org/2000/svg">
<path fill-rule="evenodd" clip-rule="evenodd" d="M6.70696 0.292893C7.09748 0.683418 7.09748 1.31658 6.70696 1.70711L2.41406 6L6.70696 10.2929C7.09748 10.6834 7.09748 11.3166 6.70696 11.7071C6.31643 12.0976 5.68327 12.0976 5.29274 11.7071L0.999849 7.41421C0.218799 6.63316 0.218802 5.36683 0.999849 4.58579L5.29274 0.292893C5.68327 -0.0976311 6.31643 -0.0976311 6.70696 0.292893Z" fill-opacity="0.95"/>
</symbol><symbol viewBox="0 0 19 16" id="tg" xmlns="http://www.w3.org/2000/svg">
<path d="M0.613963 7.799C2.52361 6.75571 4.6553 5.88497 6.64704 5.00978C10.0736 3.57628 13.5138 2.16762 16.9887 0.856182C17.6648 0.632726 18.8796 0.414197 18.9987 1.40794C18.9335 2.81457 18.6652 4.21296 18.4811 5.61135C18.014 8.68655 17.4741 11.7512 16.9476 14.8163C16.7662 15.8372 15.4767 16.3658 14.6516 15.7124C12.6687 14.3839 10.6706 13.0685 8.71298 11.7092C8.07173 11.063 8.66636 10.1349 9.23906 9.6734C10.8722 8.07707 12.6042 6.7208 14.1521 5.04198C14.5696 4.04196 13.336 4.88475 12.9291 5.14297C10.6932 6.67112 8.51212 8.29256 6.15486 9.6356C4.95077 10.293 3.54739 9.73119 2.34385 9.36434C1.26471 8.92121 -0.316608 8.47477 0.613854 7.79907L0.613963 7.799Z"/>
</symbol><symbol viewBox="0 0 24 24" id="up" xmlns="http://www.w3.org/2000/svg">
<path fill-rule="evenodd" clip-rule="evenodd" d="M6.29289 14.7071C6.68342 15.0976 7.31658 15.0976 7.70711 14.7071L12 10.4142L16.2929 14.7071C16.6834 15.0976 17.3166 15.0976 17.7071 14.7071C18.0976 14.3166 18.0976 13.6834 17.7071 13.2929L13.4142 8.99997C12.6332 8.21892 11.3668 8.21892 10.5858 8.99997L6.29289 13.2929C5.90237 13.6834 5.90237 14.3166 6.29289 14.7071Z"/>
</symbol><symbol viewBox="0 0 24 24" id="up-down" xmlns="http://www.w3.org/2000/svg">
<path fill-rule="evenodd" clip-rule="evenodd" d="M7.70711 9.70711C7.31658 10.0976 6.68342 10.0976 6.29289 9.70711C5.90237 9.31658 5.90237 8.68342 6.29289 8.29289L10.5858 4C11.3668 3.21895 12.6332 3.21895 13.4142 4L17.7071 8.29289C18.0976 8.68342 18.0976 9.31658 17.7071 9.70711C17.3166 10.0976 16.6834 10.0976 16.2929 9.70711L12 5.41422L7.70711 9.70711ZM7.70711 14.2929C7.31658 13.9024 6.68342 13.9024 6.29289 14.2929C5.90237 14.6834 5.90237 15.3166 6.29289 15.7071L10.5858 20C11.3668 20.781 12.6332 20.781 13.4142 20L17.7071 15.7071C18.0976 15.3166 18.0976 14.6834 17.7071 14.2929C17.3166 13.9024 16.6834 13.9024 16.2929 14.2929L12 18.5858L7.70711 14.2929Z"/>
</symbol><symbol viewBox="0 0 22 14" id="vk" xmlns="http://www.w3.org/2000/svg">
<path fill-rule="evenodd" clip-rule="evenodd" d="M21.1633 1.54563C21.3215 1.04981 21.1633 0.689182 20.4629 0.689182H18.1358C17.5484 0.689182 17.2772 1.00469 17.1191 1.34283C17.1191 1.34283 15.9216 4.22775 14.2497 6.0984C13.7074 6.63934 13.4589 6.81965 13.1652 6.81965C13.007 6.81965 12.8037 6.63934 12.8037 6.14351V1.52307C12.8037 0.937094 12.623 0.666626 12.1259 0.666626H8.46574C8.10423 0.666626 7.87833 0.937094 7.87833 1.20756C7.87833 1.77105 8.71426 1.90625 8.80463 3.48395V6.90981C8.80463 7.65361 8.6691 7.78881 8.37536 7.78881C7.58459 7.78881 5.66415 4.88133 4.51187 1.56818C4.28589 0.914538 4.05999 0.666626 3.47258 0.666626H1.1228C0.445005 0.666626 0.332031 0.982205 0.332031 1.32027C0.332031 1.92881 1.1228 4.99404 4.01477 9.05099C5.93528 11.8232 8.6691 13.3107 11.1318 13.3107C12.623 13.3107 12.8037 12.9727 12.8037 12.4092V10.3132C12.8037 9.63697 12.9393 9.52433 13.4137 9.52433C13.7526 9.52433 14.3627 9.70457 15.7408 11.0344C17.3224 12.612 17.5935 13.3333 18.4747 13.3333H20.8018C21.4796 13.3333 21.796 12.9952 21.6152 12.3416C21.4119 11.688 20.6437 10.7414 19.6496 9.61442C19.1073 8.98339 18.2939 8.2847 18.0454 7.94656C17.7065 7.49585 17.7969 7.31554 18.0454 6.90981C18.0229 6.90981 20.8696 2.89797 21.1633 1.54563Z"/>
</symbol><symbol viewBox="0 0 20 20" id="wa" xmlns="http://www.w3.org/2000/svg">
<path fill-rule="evenodd" clip-rule="evenodd" d="M10.0386 19.435H10.0347C8.43471 19.4345 6.86258 19.035 5.46626 18.277L0.398438 19.6L1.75467 14.6699C0.91808 13.227 0.47787 11.5903 0.478588 9.91352C0.480685 4.66782 4.76924 0.400024 10.0385 0.400024C12.5959 0.401123 14.9962 1.39193 16.8011 3.1903C18.606 4.98857 19.5994 7.37891 19.5984 9.92103C19.5963 15.1655 15.3095 19.4329 10.0386 19.435ZM5.70027 16.5546L5.99042 16.726C7.21038 17.4465 8.60881 17.8277 10.0346 17.8283H10.0378C14.4173 17.8283 17.9818 14.2808 17.9835 9.92048C17.9843 7.8075 17.1586 5.82075 15.6585 4.32602C14.1583 2.83129 12.1633 2.00772 10.041 2.00699C5.65811 2.00699 2.09361 5.5541 2.09187 9.91408C2.09126 11.4083 2.51134 12.8634 3.30673 14.1225L3.49565 14.4216L2.69296 17.3397L5.70027 16.5546ZM14.5271 11.9694C14.6937 12.0495 14.8062 12.1036 14.8542 12.1834C14.9139 12.2825 14.9139 12.7585 14.715 13.3139C14.5159 13.8692 13.5616 14.376 13.1026 14.4442C12.6911 14.5055 12.1703 14.531 11.5981 14.35C11.2512 14.2405 10.8063 14.0942 10.2364 13.8493C7.99701 12.8869 6.48368 10.7269 6.19766 10.3187C6.17763 10.2901 6.16361 10.2701 6.15579 10.2597L6.15387 10.2571C6.02746 10.0893 5.18043 8.96456 5.18043 7.80052C5.18043 6.7055 5.72091 6.13154 5.9697 5.86735C5.98674 5.84925 6.00242 5.8326 6.01646 5.81734C6.2354 5.57934 6.4942 5.51984 6.65343 5.51984C6.81266 5.51984 6.97208 5.5213 7.11125 5.52826C7.12842 5.52912 7.14628 5.52902 7.16475 5.52891C7.30395 5.5281 7.47749 5.52708 7.64869 5.93634C7.71455 6.09384 7.81092 6.32734 7.91256 6.5736C8.11811 7.07161 8.34521 7.62185 8.38516 7.70148C8.44489 7.82048 8.48469 7.95925 8.40508 8.11798C8.39312 8.14177 8.38207 8.16423 8.37151 8.18569C8.31171 8.3072 8.26772 8.39658 8.16622 8.51452C8.1263 8.5609 8.08505 8.6109 8.0438 8.66089C7.96162 8.76049 7.87946 8.86008 7.8079 8.93102C7.68832 9.04956 7.56384 9.17817 7.70318 9.41617C7.84252 9.65417 8.32191 10.4326 9.03202 11.063C9.79536 11.7406 10.4588 12.027 10.7951 12.1722C10.8607 12.2005 10.9139 12.2235 10.953 12.2429C11.1917 12.362 11.3311 12.342 11.4704 12.1834C11.6098 12.0248 12.0676 11.4892 12.2268 11.2513C12.386 11.0134 12.5453 11.053 12.7642 11.1323C12.9832 11.2117 14.1576 11.7868 14.3965 11.9057C14.4431 11.929 14.4867 11.9499 14.5271 11.9694Z"/>
</symbol></svg>