<svg aria-hidden="true" xmlns="http://www.w3.org/2000/svg" xmlns:xlink="http://www.w3.org/1999/xlink"><symbol viewBox="0 0 90 32" id="aliexpress" xmlns="http://www.w3.org/2000/svg">
<rect width="90" height="32" rx="8"/>
<g clip-path="url(#aclip0_534_7019)">
<path d="M27.9727 20.9341V10.4653H34.1602V11.7778H29.2539V14.9966H33.6602V16.3091H29.2539V19.5903H34.5039V20.9028H27.9727V20.9341Z"/>
<path d="M41.0039 20.934L38.8789 18.1527L36.7539 20.934H35.2539L38.1602 17.2152L35.0977 13.3715H36.7852L38.8789 16.2465L41.0039 13.3715H42.6602L39.7539 17.2152L42.5039 20.934H41.0039Z"/>
<path d="M44.5703 19.8096V24.9658H43.2891V17.2471C43.2891 15.2783 44.7891 13.1846 47.1328 13.1846C49.5078 13.1846 51.2891 14.6846 51.2891 17.1533C51.2891 19.5596 49.4766 21.2158 47.4141 21.2158C46.4141 21.2158 45.0703 20.7783 44.5703 19.8096ZM49.9453 17.1533C49.9453 15.4658 48.8516 14.4658 46.9141 14.5596C45.9766 14.5908 44.5391 15.2783 44.6641 17.6846C44.6953 18.4658 45.5078 19.9346 47.2891 19.9346C48.8203 19.9346 49.9453 19.0596 49.9453 17.1533Z"/>
<path d="M52.375 20.9336V13.3711H53.6563V14.1836C54.2813 13.4648 55.25 13.2148 56.2812 13.2148V14.5898C56.125 14.5586 54.5938 14.3711 53.6563 16.3711V20.9648H52.375V20.9336Z"/>
<path d="M56.625 17.1538C56.625 14.9663 58.1875 13.1851 60.3437 13.1851C63.0312 13.1851 64.0312 14.9663 64.0312 17.2476V17.8726H58.0312C58.125 19.3101 59.4062 20.0601 60.5937 20.0288C61.4687 19.9976 62.0625 19.7476 62.6875 19.1226L63.5312 19.9976C62.75 20.7476 61.75 21.2476 60.5312 21.2476C58.25 21.2163 56.625 19.5288 56.625 17.1538ZM60.25 14.4663C59.0312 14.4663 58.0937 15.5288 58.0312 16.6851H62.6875C62.6875 15.5601 61.875 14.4663 60.25 14.4663Z"/>
<path d="M64.6875 19.8714L65.625 19.0277C65.5937 19.0277 66.0938 19.5277 66.1563 19.5589C66.375 19.7464 66.5937 19.8714 66.875 19.9339C67.6875 20.1527 69.1563 20.0902 69.2813 18.9652C69.3438 18.3402 68.875 17.9964 68.3438 17.7777C67.6563 17.5277 66.9062 17.4339 66.2187 17.1214C65.4375 16.7777 64.9375 16.1839 64.9375 15.3089C64.9375 13.0277 68.1875 12.6527 69.6562 13.7152C69.7187 13.7777 70.4375 14.4339 70.4062 14.4339L69.4687 15.1839C69 14.6214 68.5625 14.3402 67.5625 14.3402C67.0625 14.3402 66.375 14.5589 66.25 15.0902C66.0625 15.8402 66.9062 16.1214 67.4687 16.2777C68.2187 16.4652 69.0312 16.5902 69.6875 16.9964C70.5937 17.5589 70.8125 18.7777 70.4687 19.7152C70.0937 20.7464 68.9687 21.1527 67.9687 21.1839C66.7812 21.2464 65.75 20.8714 64.9063 20.0277C64.8438 20.0277 64.6875 19.8714 64.6875 19.8714Z"/>
<path d="M71.2812 19.8714L72.2187 19.0277C72.1875 19.0277 72.6875 19.5277 72.75 19.5589C72.9687 19.7464 73.1875 19.8714 73.4687 19.9339C74.2812 20.1527 75.75 20.0902 75.875 18.9652C75.9375 18.3402 75.4687 17.9964 74.9375 17.7777C74.25 17.5277 73.5 17.4339 72.8125 17.1214C72.0312 16.7777 71.5312 16.1839 71.5312 15.3089C71.5312 13.0277 74.7812 12.6527 76.25 13.7152C76.3125 13.7777 77.0312 14.4339 77 14.4339L76.0625 15.1839C75.5937 14.6214 75.1562 14.3402 74.1562 14.3402C73.6562 14.3402 72.9687 14.5589 72.8437 15.0902C72.6562 15.8402 73.5 16.1214 74.0625 16.2777C74.8125 16.4652 75.625 16.5902 76.2812 16.9964C77.1875 17.5589 77.4062 18.7777 77.0625 19.7152C76.6875 20.7464 75.5625 21.1527 74.5625 21.1839C73.375 21.2464 72.3437 20.8714 71.5 20.0277C71.4375 20.0277 71.2812 19.8714 71.2812 19.8714Z"/>
<path d="M77.3789 13.3716V12.5591H77.0977V12.4028H77.8477V12.5591H77.5664V13.3716H77.3789Z"/>
<path d="M78.7852 13.3716V12.6216L78.5039 13.3716H78.4414L78.1602 12.6216V13.3716H78.0039V12.4028H78.2539L78.5039 13.0591L78.7539 12.4028H79.0039V13.3716H78.7852Z"/>
<path d="M19.2812 20.9343L18.3438 18.4343H13.2813L12.3438 20.9343H11L15.0625 10.4656H16.5312L20.5625 20.9343H19.2812ZM15.75 11.9656L13.8438 17.1531H17.8125L15.75 11.9656Z"/>
<path d="M21.4062 20.9343V10.4656H22.7187V20.9343H21.4062Z"/>
<path d="M24.6875 20.9346V13.5283H26V20.9346H24.6875Z"/>
<path d="M27.25 11.1221C27.25 11.0908 27.25 11.0908 27.25 11.0596C27.25 11.0283 27.25 11.0283 27.25 10.9971C26.25 10.9658 25.4375 10.1533 25.4062 9.15332C25.375 9.15332 25.3437 9.15332 25.3125 9.15332C25.2812 9.15332 25.25 9.15332 25.2187 9.15332C25.1875 10.1533 24.375 10.9658 23.375 10.9971C23.375 11.0283 23.375 11.0283 23.375 11.0596C23.375 11.0908 23.375 11.0908 23.375 11.1221C24.375 11.1533 25.1875 11.9658 25.2187 12.9658C25.25 12.9658 25.2812 12.9658 25.3125 12.9658C25.3437 12.9658 25.375 12.9658 25.4062 12.9658C25.4375 11.9658 26.25 11.1533 27.25 11.1221Z"/>
</g>
<defs>
<clipPath id="aclip0_534_7019">
<rect width="68" height="15.8125" transform="translate(11 9.15332)"/>
</clipPath>
</defs>
</symbol><symbol viewBox="0 0 20 20" id="envelope" xmlns="http://www.w3.org/2000/svg">
<path fill-rule="evenodd" clip-rule="evenodd" d="M19.5975 10.1822C19.5609 4.31666 15.6999 0.385047 9.97603 0.400067C4.41321 0.411333 0.387481 4.46311 0.39846 10.0244C0.39846 10.1596 0.413099 10.291 0.416758 10.4225C0.449696 11.2674 0.566809 12.071 0.779074 12.8295C1.90628 16.8888 5.44526 19.6113 10.0199 19.6C12.2707 19.5962 14.3275 18.9353 15.9634 17.6924L14.2579 15.3342C13.1198 16.2016 11.6485 16.6597 10.0126 16.6672C7.08117 16.6747 4.8048 15.1802 3.80569 12.822C3.50193 12.0973 3.31894 11.2862 3.27503 10.415C3.26771 10.2835 3.25673 10.1521 3.25673 10.0169C3.24941 6.08907 6.01252 3.34408 9.97969 3.33282C14.9496 3.32155 16.7283 6.89267 16.7356 10.2347L16.7393 10.3511V10.3812C16.7466 10.5614 16.71 11.0308 16.4794 11.3688C16.4282 11.4251 16.183 11.564 15.8719 11.564C15.6962 11.564 15.3668 11.5265 15.1619 11.2786C15.0009 11.0834 14.8764 10.7454 14.7849 10.3849C14.6678 9.93056 14.5983 9.42737 14.591 9.07815H14.5763L14.5654 5.76238C14.5654 5.64972 14.4739 5.55584 14.3641 5.55584L11.9413 5.56335C11.8315 5.56335 11.74 5.65723 11.74 5.76989V6.02899C11.052 5.64597 10.2395 5.4094 9.29898 5.41315C6.3785 5.42066 4.55594 7.5423 4.5596 10.1521C4.5596 10.2422 4.56692 10.3286 4.57058 10.415C4.61449 11.3087 4.87068 12.1311 5.31351 12.822C6.11133 14.0612 7.50204 14.876 9.31728 14.8685C10.9239 14.8648 12.1792 14.2076 12.999 13.1975C13.6943 14.0274 14.7374 14.508 15.8756 14.5043C17.0723 14.5005 18.2251 13.9335 18.8217 13.0511C18.8802 12.9647 18.9278 12.8746 18.9754 12.7844C19.517 11.8344 19.5975 10.8506 19.5939 10.3737C19.6012 10.2986 19.5975 10.231 19.5975 10.1822ZM11.4875 10.3962C11.3741 11.4814 10.5689 12.3226 9.31728 12.3263C8.06564 12.3301 7.25684 11.4889 7.13972 10.4075C7.12874 10.3211 7.11411 10.2347 7.11411 10.1446C7.11045 8.93921 7.95585 7.95537 9.30264 7.95161C10.6567 7.94786 11.5058 8.92794 11.5095 10.1333C11.5095 10.2235 11.4948 10.3098 11.4875 10.3962Z"/>
</symbol><symbol viewBox="0 0 20 20" id="instagram" xmlns="http://www.w3.org/2000/svg">
<path d="M10.0012 5.07837C8.69446 5.07837 7.44127 5.59746 6.51729 6.52144C5.59331 7.44542 5.07422 8.69861 5.07422 10.0053C5.07422 11.312 5.59331 12.5652 6.51729 13.4892C7.44127 14.4132 8.69446 14.9323 10.0012 14.9323C11.3079 14.9323 12.5611 14.4132 13.485 13.4892C14.409 12.5652 14.9281 11.312 14.9281 10.0053C14.9281 8.69861 14.409 7.44542 13.485 6.52144C12.5611 5.59746 11.3079 5.07837 10.0012 5.07837ZM10.0012 13.2051C9.15226 13.2051 8.33812 12.8678 7.73785 12.2676C7.13758 11.6673 6.80035 10.8532 6.80035 10.0042C6.80035 9.15534 7.13758 8.3412 7.73785 7.74093C8.33812 7.14067 9.15226 6.80344 10.0012 6.80344C10.8501 6.80344 11.6642 7.14067 12.2645 7.74093C12.8647 8.3412 13.202 9.15534 13.202 10.0042C13.202 10.8532 12.8647 11.6673 12.2645 12.2676C11.6642 12.8678 10.8501 13.2051 10.0012 13.2051Z"/>
<path d="M15.1213 6.04591C15.7556 6.04591 16.2699 5.53165 16.2699 4.89728C16.2699 4.26291 15.7556 3.74866 15.1213 3.74866C14.4869 3.74866 13.9727 4.26291 13.9727 4.89728C13.9727 5.53165 14.4869 6.04591 15.1213 6.04591Z"/>
<path d="M19.0936 3.72941C18.8469 3.09243 18.47 2.51396 17.9869 2.03104C17.5038 1.54813 16.9252 1.1714 16.2881 0.924976C15.5426 0.645126 14.755 0.493806 13.9589 0.47746C12.9328 0.432708 12.6078 0.419922 10.0058 0.419922C7.40384 0.419922 7.07034 0.419922 6.05277 0.47746C5.25724 0.49297 4.47022 0.644321 3.72568 0.924976C3.08844 1.17111 2.50968 1.54774 2.02654 2.03069C1.54341 2.51365 1.16656 3.09226 0.920182 3.72941C0.640276 4.47486 0.489303 5.26252 0.473731 6.05863C0.427914 7.08365 0.414062 7.40864 0.414062 10.0117C0.414062 12.6137 0.414062 12.9451 0.473731 13.9648C0.489714 14.7618 0.639952 15.5481 0.920182 16.295C1.16725 16.932 1.54446 17.5103 2.02772 17.9932C2.51097 18.4761 3.08964 18.8529 3.72675 19.0995C4.46988 19.3906 5.25723 19.5527 6.0549 19.579C7.08099 19.6237 7.40597 19.6376 10.008 19.6376C12.61 19.6376 12.9435 19.6376 13.961 19.579C14.7571 19.5628 15.5446 19.4118 16.2902 19.1325C16.9272 18.8855 17.5056 18.5085 17.9886 18.0254C18.4717 17.5424 18.8487 16.9639 19.0957 16.327C19.376 15.5811 19.5262 14.7948 19.5422 13.9978C19.588 12.9728 19.6019 12.6478 19.6019 10.0447C19.6019 7.44167 19.6019 7.11136 19.5422 6.09166C19.5298 5.28429 19.378 4.48513 19.0936 3.72941ZM17.7958 13.8859C17.7889 14.5 17.6769 15.1083 17.4644 15.6845C17.3044 16.0988 17.0595 16.4751 16.7453 16.7891C16.4311 17.1031 16.0547 17.3478 15.6403 17.5076C15.0705 17.719 14.4686 17.8311 13.8609 17.839C12.8486 17.8858 12.5631 17.8976 9.96747 17.8976C7.36975 17.8976 7.10443 17.8976 6.07301 17.839C5.46559 17.8315 4.864 17.7194 4.29467 17.5076C3.87878 17.3488 3.50086 17.1045 3.18535 16.7905C2.86984 16.4764 2.62377 16.0996 2.46305 15.6845C2.25362 15.1145 2.14159 14.5133 2.13167 13.9061C2.08586 12.8939 2.0752 12.6084 2.0752 10.0128C2.0752 7.4161 2.0752 7.15078 2.13167 6.1183C2.13856 5.50459 2.25064 4.8966 2.46305 4.32077C2.78803 3.48008 3.45398 2.8184 4.29467 2.49661C4.86428 2.28579 5.4657 2.17372 6.07301 2.16524C7.08632 2.11942 7.37081 2.10663 9.96747 2.10663C12.5641 2.10663 12.8305 2.10663 13.8609 2.16524C14.4686 2.17255 15.0706 2.28465 15.6403 2.49661C16.0547 2.65673 16.431 2.90172 16.7452 3.21587C17.0593 3.53001 17.3043 3.90636 17.4644 4.32077C17.6739 4.89077 17.7859 5.49195 17.7958 6.09912C17.8416 7.11242 17.8534 7.39692 17.8534 9.99358C17.8534 12.5892 17.8534 12.8683 17.8075 13.887H17.7958V13.8859Z"/>
</symbol><symbol viewBox="0 0 7 12" id="left" xmlns="http://www.w3.org/2000/svg">
<path fill-rule="evenodd" clip-rule="evenodd" d="M6.70696 0.292893C7.09748 0.683418 7.09748 1.31658 6.70696 1.70711L2.41406 6L6.70696 10.2929C7.09748 10.6834 7.09748 11.3166 6.70696 11.7071C6.31643 12.0976 5.68327 12.0976 5.29274 11.7071L0.999849 7.41421C0.218799 6.63316 0.218802 5.36683 0.999849 4.58579L5.29274 0.292893C5.68327 -0.0976311 6.31643 -0.0976311 6.70696 0.292893Z" fill-opacity="0.95"/>
</symbol><symbol viewBox="0 0 73 32" id="ozon" xmlns="http://www.w3.org/2000/svg">
<rect width="73" height="32" rx="8"/>
<path d="M32.323 18.6931H27.9615L33.5296 11.3251C33.651 11.1633 33.6173 10.9273 33.4555 10.806C33.3948 10.7588 33.3139 10.7318 33.233 10.7318H25.1774C24.4696 10.7318 23.8899 11.3116 23.8899 12.0194C23.8899 12.7272 24.4696 13.3069 25.1774 13.3069H28.7974L23.209 20.6817C23.0809 20.8435 23.1146 21.0727 23.2764 21.2008C23.3438 21.2547 23.4247 21.2817 23.5056 21.2749H32.3162C33.0241 21.2412 33.5701 20.6345 33.5364 19.92C33.5027 19.2593 32.9769 18.7335 32.3162 18.6998V18.6931H32.323ZM60.4738 10.7318C59.766 10.7318 59.1863 11.3116 59.1863 12.0194V16.3404L52.2295 10.8195C52.0744 10.6914 51.8385 10.7116 51.7104 10.8734C51.6565 10.9408 51.6295 11.0217 51.6295 11.1093V19.9874C51.6295 20.6952 52.2092 21.2749 52.917 21.2749C53.6249 21.2749 54.2046 20.7019 54.2046 19.9874V15.6663L61.1614 21.194C61.3232 21.3221 61.5591 21.2951 61.6872 21.1334C61.7412 21.0659 61.7681 20.9851 61.7681 20.9042V12.0194C61.7614 11.3048 61.1884 10.7318 60.4738 10.7318ZM42.0639 18.9358C39.118 18.9358 36.9204 17.3853 36.9204 15.9966C36.9204 14.608 39.1248 13.0575 42.0639 13.0575C45.0097 13.0575 47.2073 14.608 47.2073 15.9966C47.2073 17.3853 45.0165 18.9358 42.0639 18.9358ZM42.0639 10.4824C37.8035 10.4824 34.3453 12.9497 34.3453 15.9966C34.3453 19.0436 37.8035 21.5109 42.0639 21.5109C46.3243 21.5109 49.7824 19.0436 49.7824 15.9966C49.7824 12.9497 46.3243 10.4824 42.0639 10.4824ZM16.7241 18.9425C15.0995 18.9425 13.7782 17.628 13.7782 16.0034C13.7782 14.3788 15.0927 13.0575 16.7173 13.0575C18.3419 13.0575 19.6632 14.372 19.6632 15.9966V16.0034C19.6632 17.6212 18.3487 18.9358 16.7241 18.9425ZM16.7241 10.4824C13.6771 10.4824 11.2099 12.9497 11.2031 15.9966C11.2031 19.0436 13.6704 21.5109 16.7173 21.5176C19.7643 21.5176 22.2316 19.0504 22.2383 16.0034V15.9966C22.2316 12.9497 19.7643 10.4824 16.7241 10.4824Z"/>
</symbol><symbol viewBox="0 0 19 16" id="tg" xmlns="http://www.w3.org/2000/svg">
<path d="M0.613963 7.799C2.52361 6.75571 4.6553 5.88497 6.64704 5.00978C10.0736 3.57628 13.5138 2.16762 16.9887 0.856182C17.6648 0.632726 18.8796 0.414197 18.9987 1.40794C18.9335 2.81457 18.6652 4.21296 18.4811 5.61135C18.014 8.68655 17.4741 11.7512 16.9476 14.8163C16.7662 15.8372 15.4767 16.3658 14.6516 15.7124C12.6687 14.3839 10.6706 13.0685 8.71298 11.7092C8.07173 11.063 8.66636 10.1349 9.23906 9.6734C10.8722 8.07707 12.6042 6.7208 14.1521 5.04198C14.5696 4.04196 13.336 4.88475 12.9291 5.14297C10.6932 6.67112 8.51212 8.29256 6.15486 9.6356C4.95077 10.293 3.54739 9.73119 2.34385 9.36434C1.26471 8.92121 -0.316608 8.47477 0.613854 7.79907L0.613963 7.799Z"/>
</symbol><symbol viewBox="0 0 24 24" id="up" xmlns="http://www.w3.org/2000/svg">
<path fill-rule="evenodd" clip-rule="evenodd" d="M6.29289 14.7071C6.68342 15.0976 7.31658 15.0976 7.70711 14.7071L12 10.4142L16.2929 14.7071C16.6834 15.0976 17.3166 15.0976 17.7071 14.7071C18.0976 14.3166 18.0976 13.6834 17.7071 13.2929L13.4142 8.99997C12.6332 8.21892 11.3668 8.21892 10.5858 8.99997L6.29289 13.2929C5.90237 13.6834 5.90237 14.3166 6.29289 14.7071Z"/>
</symbol><symbol viewBox="0 0 24 24" id="up-down" xmlns="http://www.w3.org/2000/svg">
<path fill-rule="evenodd" clip-rule="evenodd" d="M7.70711 9.70711C7.31658 10.0976 6.68342 10.0976 6.29289 9.70711C5.90237 9.31658 5.90237 8.68342 6.29289 8.29289L10.5858 4C11.3668 3.21895 12.6332 3.21895 13.4142 4L17.7071 8.29289C18.0976 8.68342 18.0976 9.31658 17.7071 9.70711C17.3166 10.0976 16.6834 10.0976 16.2929 9.70711L12 5.41422L7.70711 9.70711ZM7.70711 14.2929C7.31658 13.9024 6.68342 13.9024 6.29289 14.2929C5.90237 14.6834 5.90237 15.3166 6.29289 15.7071L10.5858 20C11.3668 20.781 12.6332 20.781 13.4142 20L17.7071 15.7071C18.0976 15.3166 18.0976 14.6834 17.7071 14.2929C17.3166 13.9024 16.6834 13.9024 16.2929 14.2929L12 18.5858L7.70711 14.2929Z"/>
</symbol><symbol viewBox="0 0 22 14" id="vk" xmlns="http://www.w3.org/2000/svg">
<path fill-rule="evenodd" clip-rule="evenodd" d="M21.1633 1.54563C21.3215 1.04981 21.1633 0.689182 20.4629 0.689182H18.1358C17.5484 0.689182 17.2772 1.00469 17.1191 1.34283C17.1191 1.34283 15.9216 4.22775 14.2497 6.0984C13.7074 6.63934 13.4589 6.81965 13.1652 6.81965C13.007 6.81965 12.8037 6.63934 12.8037 6.14351V1.52307C12.8037 0.937094 12.623 0.666626 12.1259 0.666626H8.46574C8.10423 0.666626 7.87833 0.937094 7.87833 1.20756C7.87833 1.77105 8.71426 1.90625 8.80463 3.48395V6.90981C8.80463 7.65361 8.6691 7.78881 8.37536 7.78881C7.58459 7.78881 5.66415 4.88133 4.51187 1.56818C4.28589 0.914538 4.05999 0.666626 3.47258 0.666626H1.1228C0.445005 0.666626 0.332031 0.982205 0.332031 1.32027C0.332031 1.92881 1.1228 4.99404 4.01477 9.05099C5.93528 11.8232 8.6691 13.3107 11.1318 13.3107C12.623 13.3107 12.8037 12.9727 12.8037 12.4092V10.3132C12.8037 9.63697 12.9393 9.52433 13.4137 9.52433C13.7526 9.52433 14.3627 9.70457 15.7408 11.0344C17.3224 12.612 17.5935 13.3333 18.4747 13.3333H20.8018C21.4796 13.3333 21.796 12.9952 21.6152 12.3416C21.4119 11.688 20.6437 10.7414 19.6496 9.61442C19.1073 8.98339 18.2939 8.2847 18.0454 7.94656C17.7065 7.49585 17.7969 7.31554 18.0454 6.90981C18.0229 6.90981 20.8696 2.89797 21.1633 1.54563Z"/>
</symbol><symbol viewBox="0 0 20 20" id="wa" xmlns="http://www.w3.org/2000/svg">
<path fill-rule="evenodd" clip-rule="evenodd" d="M10.0386 19.435H10.0347C8.43471 19.4345 6.86258 19.035 5.46626 18.277L0.398438 19.6L1.75467 14.6699C0.91808 13.227 0.47787 11.5903 0.478588 9.91352C0.480685 4.66782 4.76924 0.400024 10.0385 0.400024C12.5959 0.401123 14.9962 1.39193 16.8011 3.1903C18.606 4.98857 19.5994 7.37891 19.5984 9.92103C19.5963 15.1655 15.3095 19.4329 10.0386 19.435ZM5.70027 16.5546L5.99042 16.726C7.21038 17.4465 8.60881 17.8277 10.0346 17.8283H10.0378C14.4173 17.8283 17.9818 14.2808 17.9835 9.92048C17.9843 7.8075 17.1586 5.82075 15.6585 4.32602C14.1583 2.83129 12.1633 2.00772 10.041 2.00699C5.65811 2.00699 2.09361 5.5541 2.09187 9.91408C2.09126 11.4083 2.51134 12.8634 3.30673 14.1225L3.49565 14.4216L2.69296 17.3397L5.70027 16.5546ZM14.5271 11.9694C14.6937 12.0495 14.8062 12.1036 14.8542 12.1834C14.9139 12.2825 14.9139 12.7585 14.715 13.3139C14.5159 13.8692 13.5616 14.376 13.1026 14.4442C12.6911 14.5055 12.1703 14.531 11.5981 14.35C11.2512 14.2405 10.8063 14.0942 10.2364 13.8493C7.99701 12.8869 6.48368 10.7269 6.19766 10.3187C6.17763 10.2901 6.16361 10.2701 6.15579 10.2597L6.15387 10.2571C6.02746 10.0893 5.18043 8.96456 5.18043 7.80052C5.18043 6.7055 5.72091 6.13154 5.9697 5.86735C5.98674 5.84925 6.00242 5.8326 6.01646 5.81734C6.2354 5.57934 6.4942 5.51984 6.65343 5.51984C6.81266 5.51984 6.97208 5.5213 7.11125 5.52826C7.12842 5.52912 7.14628 5.52902 7.16475 5.52891C7.30395 5.5281 7.47749 5.52708 7.64869 5.93634C7.71455 6.09384 7.81092 6.32734 7.91256 6.5736C8.11811 7.07161 8.34521 7.62185 8.38516 7.70148C8.44489 7.82048 8.48469 7.95925 8.40508 8.11798C8.39312 8.14177 8.38207 8.16423 8.37151 8.18569C8.31171 8.3072 8.26772 8.39658 8.16622 8.51452C8.1263 8.5609 8.08505 8.6109 8.0438 8.66089C7.96162 8.76049 7.87946 8.86008 7.8079 8.93102C7.68832 9.04956 7.56384 9.17817 7.70318 9.41617C7.84252 9.65417 8.32191 10.4326 9.03202 11.063C9.79536 11.7406 10.4588 12.027 10.7951 12.1722C10.8607 12.2005 10.9139 12.2235 10.953 12.2429C11.1917 12.362 11.3311 12.342 11.4704 12.1834C11.6098 12.0248 12.0676 11.4892 12.2268 11.2513C12.386 11.0134 12.5453 11.053 12.7642 11.1323C12.9832 11.2117 14.1576 11.7868 14.3965 11.9057C14.4431 11.929 14.4867 11.9499 14.5271 11.9694Z"/>
</symbol><symbol viewBox="0 0 125 32" id="wildberries" xmlns="http://www.w3.org/2000/svg">
<rect width="125" height="32" rx="8"/>
<path d="M14.1395 21.7807L11 10.2072H13.0594L15.4715 19.0962L18.0567 10.2064L19.9764 10.2072L22.5707 19.1435L24.9937 10.2094L27.053 10.2064L23.9122 21.7786L21.5252 21.7762L19.0174 13.1333L16.5072 21.7784L14.1395 21.7807Z"/>
<path d="M28.4727 10.2139H30.433V21.7739H28.4727V10.2139Z"/>
<path d="M34.6229 19.9603H39.3954V21.7736H32.7031V10.2136H34.6229V19.9603Z"/>
<path d="M45.4266 10.2272C47.0354 10.2272 48.3739 10.7872 49.4285 11.8939C50.4965 13.0005 51.0373 14.3739 51.0373 16.0005C51.0373 17.6139 50.4965 18.9872 49.4285 20.1072C48.3739 21.2139 47.0354 21.7739 45.4266 21.7739H40.8164V10.2139H45.4266V10.2272ZM45.4266 19.9739C46.5352 19.9739 47.441 19.6005 48.117 18.8539C48.8201 18.1072 49.1716 17.1472 49.1716 16.0139C49.1716 14.8539 48.8201 13.9205 48.117 13.1739C47.4275 12.4272 46.5217 12.0539 45.4266 12.0539H42.7497V19.9739H45.4266Z"/>
<path d="M61.3803 18.4713C61.3803 19.4184 61.0426 20.2055 60.353 20.8325C59.6634 21.4595 58.8521 21.7796 57.8519 21.7796H52.8359V10.2136H57.4867C58.4467 10.2136 59.2576 10.5338 59.9201 11.1341C60.5964 11.7477 60.9209 12.5082 60.9209 13.4153C60.9209 14.4291 60.515 15.2029 59.7311 15.7765C60.7584 16.3101 61.3803 17.2706 61.3803 18.4713ZM54.7691 12.0012V15.0428H57.5C58.352 15.0428 59.0009 14.3758 59.0009 13.522C59.0009 12.6682 58.352 12.0012 57.5 12.0012H54.7691ZM57.8651 19.992C58.7574 19.992 59.4607 19.285 59.4607 18.3779C59.4607 17.4707 58.7574 16.7637 57.8651 16.7637H54.7691V20.0054H57.8651V19.992Z"/>
<path d="M65.1266 19.9656H70.3183V21.7799H63.207V10.2139H70.2373V12.0281H65.1266V15.0297H69.8182V16.8306H65.1266V19.9656Z"/>
<path d="M78.7257 21.7799L76.2379 17.5643H73.9664V21.7799H72.0469V10.2139H76.738C77.7927 10.2139 78.685 10.574 79.4016 11.3078C80.1314 12.0148 80.5103 12.8953 80.5103 13.9358C80.5103 15.4032 79.5773 16.7506 78.1849 17.2842L80.848 21.7799H78.7257ZM73.9664 12.0014V15.8701H76.7247C77.752 15.8701 78.5633 15.0164 78.5633 13.9358C78.5633 12.8686 77.7387 12.0014 76.7247 12.0014H73.9664Z"/>
<path d="M88.9855 21.7793L86.5113 17.5616H84.2399V21.7793H82.3203V10.2073H87.0115C88.0662 10.2073 88.9585 10.5677 89.675 11.3018C90.4049 12.0092 90.7837 12.89 90.7837 13.9311C90.7837 15.3993 89.8507 16.7474 88.4583 17.2813L91.1215 21.7793H88.9855ZM84.2399 11.9958V15.8665H86.9982C88.0255 15.8665 88.8367 15.0122 88.8367 13.9311C88.8367 12.8634 88.0122 11.9958 86.9982 11.9958H84.2399Z"/>
<path d="M92.5312 10.208H94.4513V21.7787H92.5312V10.208Z"/>
<path d="M98.6427 19.9656H103.834V21.7798H96.7227V10.2139H103.753V12.0281H98.6427V15.0297H103.334V16.8306H98.6427V19.9656Z"/>
<path d="M105.172 19.1467L106.835 18.1867C107.308 19.4933 108.268 20.1333 109.741 20.1333C111.201 20.1333 111.918 19.52 111.918 18.6133C111.918 18.1333 111.715 17.7867 111.337 17.5467C110.958 17.2933 110.255 17.0133 109.255 16.72C108.132 16.3867 107.578 16.1733 106.794 15.6667C106.037 15.1333 105.658 14.3733 105.658 13.3333C105.658 12.3067 106.023 11.5067 106.767 10.9067C107.497 10.2933 108.39 10 109.431 10C111.31 10 112.756 10.96 113.514 12.5467L111.891 13.4667C111.404 12.4 110.58 11.8533 109.431 11.8533C108.308 11.8533 107.592 12.4133 107.592 13.2933C107.592 14.1467 108.159 14.5467 109.958 15.0933C110.404 15.24 110.728 15.3467 110.931 15.4267C111.147 15.4933 111.431 15.6133 111.796 15.76C112.175 15.9067 112.473 16.08 112.648 16.2267C113.27 16.7067 113.932 17.4933 113.851 18.6C113.851 19.64 113.473 20.48 112.702 21.0933C111.945 21.7067 110.945 22 109.701 22C107.43 21.9867 105.78 20.92 105.172 19.1467Z"/>
</symbol><symbol viewBox="0 0 96 32" id="yamarket" xmlns="http://www.w3.org/2000/svg">
<rect width="96" height="32" rx="8"/>
<path d="M45.7789 21.1207H47.2376L49.2766 13.5452V21.1207H50.9176V11.1084H48.6632L46.6243 18.4518L44.5854 11.1084H42.2812V21.1207H43.6903V13.5452L45.7789 21.1207ZM57.7803 16.1643C57.7803 14.3906 56.9018 13.7275 55.0784 13.7275C53.9346 13.7275 53.0394 14.0756 52.509 14.3906V15.7996C52.9566 15.4515 53.9677 15.0868 54.8629 15.0868C55.7083 15.0868 56.0564 15.4017 56.0564 16.1477V16.5455H55.7912C53.1721 16.5455 51.9785 17.4241 51.9785 18.8994C51.9785 20.3747 52.8571 21.2035 54.1998 21.2035C55.211 21.2035 55.6585 20.8886 55.9735 20.5405H56.0564C56.0564 20.7228 56.1393 20.988 56.189 21.1207H57.8798C57.8301 20.5405 57.7969 19.9271 57.7969 19.347C57.7803 19.347 57.7803 16.1643 57.7803 16.1643ZM56.0564 19.3967C55.8409 19.7116 55.4431 19.9769 54.8131 19.9769C54.1003 19.9769 53.7522 19.5293 53.7522 18.916C53.7522 18.0706 54.3324 17.7722 55.8409 17.7722H56.1061V19.4133H56.0564V19.3967ZM60.7476 13.8601H59.1562V23.2093H60.8802V20.2918C61.3277 20.9549 61.9411 21.2698 62.7036 21.2698C64.3944 21.2698 65.5382 19.9437 65.5382 17.507C65.5382 15.0702 64.4276 13.7441 62.7865 13.7441C61.9908 13.7441 61.3277 14.0922 60.8304 14.805C60.847 14.7884 60.7476 13.8601 60.7476 13.8601ZM62.2229 19.9271C61.3443 19.9271 60.847 19.1812 60.847 17.5401C60.847 15.8493 61.3277 15.1034 62.3058 15.1034C63.234 15.1034 63.7148 15.8493 63.7148 17.4904C63.7148 19.1812 63.234 19.9271 62.2229 19.9271ZM70.8924 21.1207H72.8485L70.0967 17.2252L72.5335 13.8601H70.8095L68.3728 17.2252V13.8601H66.6488V21.1207H68.3728V17.5733L70.8924 21.1207ZM78.6005 20.6399V19.2309C78.0701 19.579 77.1915 19.894 76.3461 19.894C75.1029 19.894 74.6222 19.3138 74.5227 18.0706H78.6337V17.1423C78.6337 14.6226 77.5231 13.6943 75.7991 13.6943C73.7104 13.6943 72.6993 15.2857 72.6993 17.507C72.6993 20.0266 73.9425 21.2698 76.114 21.2698C77.3241 21.2533 78.1198 20.988 78.6005 20.6399ZM75.8157 15.1034C76.6611 15.1034 76.9263 15.8161 76.9263 16.6947V16.8273H74.5227C74.5724 15.6835 75.02 15.1034 75.8157 15.1034ZM84.8002 15.236V13.8601H79.0481V15.236H81.087V21.1207H82.811V15.236H84.8002Z"/>
<path d="M32.0537 22.8945C35.7337 22.8945 38.7009 19.9273 38.7009 16.2473C38.7009 12.5673 35.7337 9.6001 32.0537 9.6001C28.3737 9.6001 25.4065 12.5673 25.4065 16.2473C25.3734 19.9273 28.3903 22.8945 32.0537 22.8945Z"/>
<path d="M17.8464 22.8945C21.5176 22.8945 24.4936 19.9185 24.4936 16.2473C24.4936 12.5762 21.5176 9.6001 17.8464 9.6001C14.1753 9.6001 11.1992 12.5762 11.1992 16.2473C11.1992 19.9185 14.1753 22.8945 17.8464 22.8945Z"/>
<path d="M18.8046 13.3294H18.1415C16.9978 13.3294 16.4176 13.9096 16.4176 14.7882C16.4176 15.7662 16.8154 16.2469 17.6608 16.8271L18.3239 17.3078L16.4176 20.275H14.8594L16.6828 17.573C15.6219 16.8271 15.0417 16.1143 15.0417 14.871C15.0417 13.3129 16.1026 12.252 18.1415 12.252H20.1805V20.2253H18.8543V13.3129H18.8046V13.3294Z"/>
<path d="M28.789 13.2468L22.9375 20.9052L24.4957 22.6789L28.8388 16.9268L28.3912 20.0764L30.8279 20.9218L33.7952 16.1809C33.6625 17.0594 33.447 19.0983 35.3865 19.7283C38.4366 20.6565 41.1054 15.1697 42.3321 12.3848L40.5584 11.4565C39.1825 14.3409 37.0607 17.5236 36.2153 17.3081C35.3699 17.0926 36.1325 14.3906 36.6132 12.6501V12.6003L33.9112 11.672L30.6788 16.9434L31.1263 14.0591L28.789 13.2468Z"/>
</symbol></svg>