<svg width="90" height="32" viewBox="0 0 90 32" fill="none" xmlns="http://www.w3.org/2000/svg">
<rect width="90" height="32" rx="8" fill="white"/>
<g clip-path="url(#clip0_534_7019)">
<path d="M27.9727 20.9341V10.4653H34.1602V11.7778H29.2539V14.9966H33.6602V16.3091H29.2539V19.5903H34.5039V20.9028H27.9727V20.9341Z" fill="#E43225"/>
<path d="M41.0039 20.934L38.8789 18.1527L36.7539 20.934H35.2539L38.1602 17.2152L35.0977 13.3715H36.7852L38.8789 16.2465L41.0039 13.3715H42.6602L39.7539 17.2152L42.5039 20.934H41.0039Z" fill="#E43225"/>
<path d="M44.5703 19.8096V24.9658H43.2891V17.2471C43.2891 15.2783 44.7891 13.1846 47.1328 13.1846C49.5078 13.1846 51.2891 14.6846 51.2891 17.1533C51.2891 19.5596 49.4766 21.2158 47.4141 21.2158C46.4141 21.2158 45.0703 20.7783 44.5703 19.8096ZM49.9453 17.1533C49.9453 15.4658 48.8516 14.4658 46.9141 14.5596C45.9766 14.5908 44.5391 15.2783 44.6641 17.6846C44.6953 18.4658 45.5078 19.9346 47.2891 19.9346C48.8203 19.9346 49.9453 19.0596 49.9453 17.1533Z" fill="#E43225"/>
<path d="M52.375 20.9336V13.3711H53.6563V14.1836C54.2813 13.4648 55.25 13.2148 56.2812 13.2148V14.5898C56.125 14.5586 54.5938 14.3711 53.6563 16.3711V20.9648H52.375V20.9336Z" fill="#E43225"/>
<path d="M56.625 17.1538C56.625 14.9663 58.1875 13.1851 60.3437 13.1851C63.0312 13.1851 64.0312 14.9663 64.0312 17.2476V17.8726H58.0312C58.125 19.3101 59.4062 20.0601 60.5937 20.0288C61.4687 19.9976 62.0625 19.7476 62.6875 19.1226L63.5312 19.9976C62.75 20.7476 61.75 21.2476 60.5312 21.2476C58.25 21.2163 56.625 19.5288 56.625 17.1538ZM60.25 14.4663C59.0312 14.4663 58.0937 15.5288 58.0312 16.6851H62.6875C62.6875 15.5601 61.875 14.4663 60.25 14.4663Z" fill="#E43225"/>
<path d="M64.6875 19.8714L65.625 19.0277C65.5937 19.0277 66.0938 19.5277 66.1563 19.5589C66.375 19.7464 66.5937 19.8714 66.875 19.9339C67.6875 20.1527 69.1563 20.0902 69.2813 18.9652C69.3438 18.3402 68.875 17.9964 68.3438 17.7777C67.6563 17.5277 66.9062 17.4339 66.2187 17.1214C65.4375 16.7777 64.9375 16.1839 64.9375 15.3089C64.9375 13.0277 68.1875 12.6527 69.6562 13.7152C69.7187 13.7777 70.4375 14.4339 70.4062 14.4339L69.4687 15.1839C69 14.6214 68.5625 14.3402 67.5625 14.3402C67.0625 14.3402 66.375 14.5589 66.25 15.0902C66.0625 15.8402 66.9062 16.1214 67.4687 16.2777C68.2187 16.4652 69.0312 16.5902 69.6875 16.9964C70.5937 17.5589 70.8125 18.7777 70.4687 19.7152C70.0937 20.7464 68.9687 21.1527 67.9687 21.1839C66.7812 21.2464 65.75 20.8714 64.9063 20.0277C64.8438 20.0277 64.6875 19.8714 64.6875 19.8714Z" fill="#E43225"/>
<path d="M71.2812 19.8714L72.2187 19.0277C72.1875 19.0277 72.6875 19.5277 72.75 19.5589C72.9687 19.7464 73.1875 19.8714 73.4687 19.9339C74.2812 20.1527 75.75 20.0902 75.875 18.9652C75.9375 18.3402 75.4687 17.9964 74.9375 17.7777C74.25 17.5277 73.5 17.4339 72.8125 17.1214C72.0312 16.7777 71.5312 16.1839 71.5312 15.3089C71.5312 13.0277 74.7812 12.6527 76.25 13.7152C76.3125 13.7777 77.0312 14.4339 77 14.4339L76.0625 15.1839C75.5937 14.6214 75.1562 14.3402 74.1562 14.3402C73.6562 14.3402 72.9687 14.5589 72.8437 15.0902C72.6562 15.8402 73.5 16.1214 74.0625 16.2777C74.8125 16.4652 75.625 16.5902 76.2812 16.9964C77.1875 17.5589 77.4062 18.7777 77.0625 19.7152C76.6875 20.7464 75.5625 21.1527 74.5625 21.1839C73.375 21.2464 72.3437 20.8714 71.5 20.0277C71.4375 20.0277 71.2812 19.8714 71.2812 19.8714Z" fill="#E43225"/>
<path d="M77.3789 13.3716V12.5591H77.0977V12.4028H77.8477V12.5591H77.5664V13.3716H77.3789Z" fill="#E43225"/>
<path d="M78.7852 13.3716V12.6216L78.5039 13.3716H78.4414L78.1602 12.6216V13.3716H78.0039V12.4028H78.2539L78.5039 13.0591L78.7539 12.4028H79.0039V13.3716H78.7852Z" fill="#E43225"/>
<path d="M19.2812 20.9343L18.3438 18.4343H13.2813L12.3438 20.9343H11L15.0625 10.4656H16.5312L20.5625 20.9343H19.2812ZM15.75 11.9656L13.8438 17.1531H17.8125L15.75 11.9656Z" fill="#F7971D"/>
<path d="M21.4062 20.9343V10.4656H22.7187V20.9343H21.4062Z" fill="#F7971D"/>
<path d="M24.6875 20.9346V13.5283H26V20.9346H24.6875Z" fill="#F7971D"/>
<path d="M27.25 11.1221C27.25 11.0908 27.25 11.0908 27.25 11.0596C27.25 11.0283 27.25 11.0283 27.25 10.9971C26.25 10.9658 25.4375 10.1533 25.4062 9.15332C25.375 9.15332 25.3437 9.15332 25.3125 9.15332C25.2812 9.15332 25.25 9.15332 25.2187 9.15332C25.1875 10.1533 24.375 10.9658 23.375 10.9971C23.375 11.0283 23.375 11.0283 23.375 11.0596C23.375 11.0908 23.375 11.0908 23.375 11.1221C24.375 11.1533 25.1875 11.9658 25.2187 12.9658C25.25 12.9658 25.2812 12.9658 25.3125 12.9658C25.3437 12.9658 25.375 12.9658 25.4062 12.9658C25.4375 11.9658 26.25 11.1533 27.25 11.1221Z" fill="#F7971D"/>
</g>
<defs>
<clipPath id="clip0_534_7019">
<rect width="68" height="15.8125" fill="white" transform="translate(11 9.15332)"/>
</clipPath>
</defs>
</svg>
