<svg width="73" height="32" viewBox="0 0 73 32" fill="none" xmlns="http://www.w3.org/2000/svg">
<rect width="73" height="32" rx="8" fill="#005BFF"/>
<path d="M32.323 18.6931H27.9615L33.5296 11.3251C33.651 11.1633 33.6173 10.9273 33.4555 10.806C33.3948 10.7588 33.3139 10.7318 33.233 10.7318H25.1774C24.4696 10.7318 23.8899 11.3116 23.8899 12.0194C23.8899 12.7272 24.4696 13.3069 25.1774 13.3069H28.7974L23.209 20.6817C23.0809 20.8435 23.1146 21.0727 23.2764 21.2008C23.3438 21.2547 23.4247 21.2817 23.5056 21.2749H32.3162C33.0241 21.2412 33.5701 20.6345 33.5364 19.92C33.5027 19.2593 32.9769 18.7335 32.3162 18.6998V18.6931H32.323ZM60.4738 10.7318C59.766 10.7318 59.1863 11.3116 59.1863 12.0194V16.3404L52.2295 10.8195C52.0744 10.6914 51.8385 10.7116 51.7104 10.8734C51.6565 10.9408 51.6295 11.0217 51.6295 11.1093V19.9874C51.6295 20.6952 52.2092 21.2749 52.917 21.2749C53.6249 21.2749 54.2046 20.7019 54.2046 19.9874V15.6663L61.1614 21.194C61.3232 21.3221 61.5591 21.2951 61.6872 21.1334C61.7412 21.0659 61.7681 20.9851 61.7681 20.9042V12.0194C61.7614 11.3048 61.1884 10.7318 60.4738 10.7318ZM42.0639 18.9358C39.118 18.9358 36.9204 17.3853 36.9204 15.9966C36.9204 14.608 39.1248 13.0575 42.0639 13.0575C45.0097 13.0575 47.2073 14.608 47.2073 15.9966C47.2073 17.3853 45.0165 18.9358 42.0639 18.9358ZM42.0639 10.4824C37.8035 10.4824 34.3453 12.9497 34.3453 15.9966C34.3453 19.0436 37.8035 21.5109 42.0639 21.5109C46.3243 21.5109 49.7824 19.0436 49.7824 15.9966C49.7824 12.9497 46.3243 10.4824 42.0639 10.4824ZM16.7241 18.9425C15.0995 18.9425 13.7782 17.628 13.7782 16.0034C13.7782 14.3788 15.0927 13.0575 16.7173 13.0575C18.3419 13.0575 19.6632 14.372 19.6632 15.9966V16.0034C19.6632 17.6212 18.3487 18.9358 16.7241 18.9425ZM16.7241 10.4824C13.6771 10.4824 11.2099 12.9497 11.2031 15.9966C11.2031 19.0436 13.6704 21.5109 16.7173 21.5176C19.7643 21.5176 22.2316 19.0504 22.2383 16.0034V15.9966C22.2316 12.9497 19.7643 10.4824 16.7241 10.4824Z" fill="white"/>
</svg>
