<svg width="125" height="32" viewBox="0 0 125 32" fill="none" xmlns="http://www.w3.org/2000/svg">
<rect width="125" height="32" rx="8" fill="#BB1CA0"/>
<path d="M14.1395 21.7807L11 10.2072H13.0594L15.4715 19.0962L18.0567 10.2064L19.9764 10.2072L22.5707 19.1435L24.9937 10.2094L27.053 10.2064L23.9122 21.7786L21.5252 21.7762L19.0174 13.1333L16.5072 21.7784L14.1395 21.7807Z" fill="white"/>
<path d="M28.4727 10.2139H30.433V21.7739H28.4727V10.2139Z" fill="white"/>
<path d="M34.6229 19.9603H39.3954V21.7736H32.7031V10.2136H34.6229V19.9603Z" fill="white"/>
<path d="M45.4266 10.2272C47.0354 10.2272 48.3739 10.7872 49.4285 11.8939C50.4965 13.0005 51.0373 14.3739 51.0373 16.0005C51.0373 17.6139 50.4965 18.9872 49.4285 20.1072C48.3739 21.2139 47.0354 21.7739 45.4266 21.7739H40.8164V10.2139H45.4266V10.2272ZM45.4266 19.9739C46.5352 19.9739 47.441 19.6005 48.117 18.8539C48.8201 18.1072 49.1716 17.1472 49.1716 16.0139C49.1716 14.8539 48.8201 13.9205 48.117 13.1739C47.4275 12.4272 46.5217 12.0539 45.4266 12.0539H42.7497V19.9739H45.4266Z" fill="white"/>
<path d="M61.3803 18.4713C61.3803 19.4184 61.0426 20.2055 60.353 20.8325C59.6634 21.4595 58.8521 21.7796 57.8519 21.7796H52.8359V10.2136H57.4867C58.4467 10.2136 59.2576 10.5338 59.9201 11.1341C60.5964 11.7477 60.9209 12.5082 60.9209 13.4153C60.9209 14.4291 60.515 15.2029 59.7311 15.7765C60.7584 16.3101 61.3803 17.2706 61.3803 18.4713ZM54.7691 12.0012V15.0428H57.5C58.352 15.0428 59.0009 14.3758 59.0009 13.522C59.0009 12.6682 58.352 12.0012 57.5 12.0012H54.7691ZM57.8651 19.992C58.7574 19.992 59.4607 19.285 59.4607 18.3779C59.4607 17.4707 58.7574 16.7637 57.8651 16.7637H54.7691V20.0054H57.8651V19.992Z" fill="white"/>
<path d="M65.1266 19.9656H70.3183V21.7799H63.207V10.2139H70.2373V12.0281H65.1266V15.0297H69.8182V16.8306H65.1266V19.9656Z" fill="white"/>
<path d="M78.7257 21.7799L76.2379 17.5643H73.9664V21.7799H72.0469V10.2139H76.738C77.7927 10.2139 78.685 10.574 79.4016 11.3078C80.1314 12.0148 80.5103 12.8953 80.5103 13.9358C80.5103 15.4032 79.5773 16.7506 78.1849 17.2842L80.848 21.7799H78.7257ZM73.9664 12.0014V15.8701H76.7247C77.752 15.8701 78.5633 15.0164 78.5633 13.9358C78.5633 12.8686 77.7387 12.0014 76.7247 12.0014H73.9664Z" fill="white"/>
<path d="M88.9855 21.7793L86.5113 17.5616H84.2399V21.7793H82.3203V10.2073H87.0115C88.0662 10.2073 88.9585 10.5677 89.675 11.3018C90.4049 12.0092 90.7837 12.89 90.7837 13.9311C90.7837 15.3993 89.8507 16.7474 88.4583 17.2813L91.1215 21.7793H88.9855ZM84.2399 11.9958V15.8665H86.9982C88.0255 15.8665 88.8367 15.0122 88.8367 13.9311C88.8367 12.8634 88.0122 11.9958 86.9982 11.9958H84.2399Z" fill="white"/>
<path d="M92.5312 10.208H94.4513V21.7787H92.5312V10.208Z" fill="white"/>
<path d="M98.6427 19.9656H103.834V21.7798H96.7227V10.2139H103.753V12.0281H98.6427V15.0297H103.334V16.8306H98.6427V19.9656Z" fill="white"/>
<path d="M105.172 19.1467L106.835 18.1867C107.308 19.4933 108.268 20.1333 109.741 20.1333C111.201 20.1333 111.918 19.52 111.918 18.6133C111.918 18.1333 111.715 17.7867 111.337 17.5467C110.958 17.2933 110.255 17.0133 109.255 16.72C108.132 16.3867 107.578 16.1733 106.794 15.6667C106.037 15.1333 105.658 14.3733 105.658 13.3333C105.658 12.3067 106.023 11.5067 106.767 10.9067C107.497 10.2933 108.39 10 109.431 10C111.31 10 112.756 10.96 113.514 12.5467L111.891 13.4667C111.404 12.4 110.58 11.8533 109.431 11.8533C108.308 11.8533 107.592 12.4133 107.592 13.2933C107.592 14.1467 108.159 14.5467 109.958 15.0933C110.404 15.24 110.728 15.3467 110.931 15.4267C111.147 15.4933 111.431 15.6133 111.796 15.76C112.175 15.9067 112.473 16.08 112.648 16.2267C113.27 16.7067 113.932 17.4933 113.851 18.6C113.851 19.64 113.473 20.48 112.702 21.0933C111.945 21.7067 110.945 22 109.701 22C107.43 21.9867 105.78 20.92 105.172 19.1467Z" fill="white"/>
</svg>
