<svg width="96" height="32" viewBox="0 0 96 32" fill="none" xmlns="http://www.w3.org/2000/svg">
<rect width="96" height="32" rx="8" fill="white"/>
<path d="M45.7789 21.1207H47.2376L49.2766 13.5452V21.1207H50.9176V11.1084H48.6632L46.6243 18.4518L44.5854 11.1084H42.2812V21.1207H43.6903V13.5452L45.7789 21.1207ZM57.7803 16.1643C57.7803 14.3906 56.9018 13.7275 55.0784 13.7275C53.9346 13.7275 53.0394 14.0756 52.509 14.3906V15.7996C52.9566 15.4515 53.9677 15.0868 54.8629 15.0868C55.7083 15.0868 56.0564 15.4017 56.0564 16.1477V16.5455H55.7912C53.1721 16.5455 51.9785 17.4241 51.9785 18.8994C51.9785 20.3747 52.8571 21.2035 54.1998 21.2035C55.211 21.2035 55.6585 20.8886 55.9735 20.5405H56.0564C56.0564 20.7228 56.1393 20.988 56.189 21.1207H57.8798C57.8301 20.5405 57.7969 19.9271 57.7969 19.347C57.7803 19.347 57.7803 16.1643 57.7803 16.1643ZM56.0564 19.3967C55.8409 19.7116 55.4431 19.9769 54.8131 19.9769C54.1003 19.9769 53.7522 19.5293 53.7522 18.916C53.7522 18.0706 54.3324 17.7722 55.8409 17.7722H56.1061V19.4133H56.0564V19.3967ZM60.7476 13.8601H59.1562V23.2093H60.8802V20.2918C61.3277 20.9549 61.9411 21.2698 62.7036 21.2698C64.3944 21.2698 65.5382 19.9437 65.5382 17.507C65.5382 15.0702 64.4276 13.7441 62.7865 13.7441C61.9908 13.7441 61.3277 14.0922 60.8304 14.805C60.847 14.7884 60.7476 13.8601 60.7476 13.8601ZM62.2229 19.9271C61.3443 19.9271 60.847 19.1812 60.847 17.5401C60.847 15.8493 61.3277 15.1034 62.3058 15.1034C63.234 15.1034 63.7148 15.8493 63.7148 17.4904C63.7148 19.1812 63.234 19.9271 62.2229 19.9271ZM70.8924 21.1207H72.8485L70.0967 17.2252L72.5335 13.8601H70.8095L68.3728 17.2252V13.8601H66.6488V21.1207H68.3728V17.5733L70.8924 21.1207ZM78.6005 20.6399V19.2309C78.0701 19.579 77.1915 19.894 76.3461 19.894C75.1029 19.894 74.6222 19.3138 74.5227 18.0706H78.6337V17.1423C78.6337 14.6226 77.5231 13.6943 75.7991 13.6943C73.7104 13.6943 72.6993 15.2857 72.6993 17.507C72.6993 20.0266 73.9425 21.2698 76.114 21.2698C77.3241 21.2533 78.1198 20.988 78.6005 20.6399ZM75.8157 15.1034C76.6611 15.1034 76.9263 15.8161 76.9263 16.6947V16.8273H74.5227C74.5724 15.6835 75.02 15.1034 75.8157 15.1034ZM84.8002 15.236V13.8601H79.0481V15.236H81.087V21.1207H82.811V15.236H84.8002Z" fill="black"/>
<path d="M32.0537 22.8945C35.7337 22.8945 38.7009 19.9273 38.7009 16.2473C38.7009 12.5673 35.7337 9.6001 32.0537 9.6001C28.3737 9.6001 25.4065 12.5673 25.4065 16.2473C25.3734 19.9273 28.3903 22.8945 32.0537 22.8945Z" fill="#FED42B"/>
<path d="M17.8464 22.8945C21.5176 22.8945 24.4936 19.9185 24.4936 16.2473C24.4936 12.5762 21.5176 9.6001 17.8464 9.6001C14.1753 9.6001 11.1992 12.5762 11.1992 16.2473C11.1992 19.9185 14.1753 22.8945 17.8464 22.8945Z" fill="#FC3F1D"/>
<path d="M18.8046 13.3294H18.1415C16.9978 13.3294 16.4176 13.9096 16.4176 14.7882C16.4176 15.7662 16.8154 16.2469 17.6608 16.8271L18.3239 17.3078L16.4176 20.275H14.8594L16.6828 17.573C15.6219 16.8271 15.0417 16.1143 15.0417 14.871C15.0417 13.3129 16.1026 12.252 18.1415 12.252H20.1805V20.2253H18.8543V13.3129H18.8046V13.3294Z" fill="white"/>
<path d="M28.789 13.2468L22.9375 20.9052L24.4957 22.6789L28.8388 16.9268L28.3912 20.0764L30.8279 20.9218L33.7952 16.1809C33.6625 17.0594 33.447 19.0983 35.3865 19.7283C38.4366 20.6565 41.1054 15.1697 42.3321 12.3848L40.5584 11.4565C39.1825 14.3409 37.0607 17.5236 36.2153 17.3081C35.3699 17.0926 36.1325 14.3906 36.6132 12.6501V12.6003L33.9112 11.672L30.6788 16.9434L31.1263 14.0591L28.789 13.2468Z" fill="black"/>
</svg>
