<svg width="205" height="33" viewBox="0 0 205 33" fill="none" xmlns="http://www.w3.org/2000/svg">
<path fill-rule="evenodd" clip-rule="evenodd" d="M0 12.726C0 11.1944 0.287545 9.69827 0.862634 8.23744C1.46169 6.75305 2.32432 5.41003 3.45054 4.20837C4.57675 3.00673 5.94259 2.05247 7.54805 1.34562C9.17747 0.615207 11.0106 0.25 13.0473 0.25C15.4915 0.25 17.6241 0.756578 19.4452 1.76973C21.2663 2.75933 22.6202 4.07879 23.5068 5.72811L18.1513 9.47443C17.8398 8.64977 17.3845 8.0136 16.7854 7.56593C16.2103 7.11825 15.5753 6.81195 14.8804 6.64702C14.2095 6.45852 13.5505 6.36428 12.9036 6.36428C11.8972 6.36428 11.0226 6.56455 10.2797 6.9651C9.56086 7.34209 8.96181 7.84867 8.48257 8.48483C8.02729 9.121 7.67984 9.82786 7.44022 10.6054C7.22456 11.3829 7.11673 12.1605 7.11673 12.938C7.11673 13.8098 7.24852 14.6462 7.51211 15.4473C7.77569 16.2484 8.15908 16.9671 8.66228 17.6032C9.16549 18.2158 9.77652 18.6989 10.4954 19.0523C11.2382 19.4057 12.0649 19.5824 12.9755 19.5824C13.6224 19.5824 14.2814 19.4882 14.9523 19.2997C15.6233 19.0876 16.2343 18.7578 16.7854 18.3101C17.3366 17.8624 17.7559 17.2616 18.0434 16.5076L23.7584 19.8652C23.2552 21.0904 22.4165 22.1389 21.2424 23.0107C20.0682 23.8824 18.7383 24.554 17.2527 25.0252C15.767 25.4729 14.2934 25.6967 12.8317 25.6967C10.9387 25.6967 9.20143 25.3315 7.61994 24.6011C6.0624 23.8471 4.70855 22.8575 3.55837 21.6323C2.43215 20.3835 1.55753 18.9934 0.93452 17.4619C0.311507 15.9068 0 14.3282 0 12.726ZM25.8577 25.4846V6.89442H32.6869V16.543L38.6534 6.89442H44.8716V25.4846H38.0424V16.1542L32.1118 25.4846H25.8577ZM48.4625 6.89442V25.4846H54.9323V15.9068L58.0953 22.2331H62.3366L65.4995 15.9068V25.4846H71.9693V6.89442H64.8526L60.2159 15.9068L55.6152 6.89442H48.4625ZM75.5602 25.4846V6.89442H86.9902C88.4998 6.89442 89.6979 7.10647 90.5845 7.53058C91.4711 7.93114 92.1061 8.47305 92.4894 9.15635C92.8968 9.81608 93.1005 10.5465 93.1005 11.3476C93.1005 12.4314 92.8608 13.3503 92.3816 14.1043C91.9263 14.8583 91.1835 15.4591 90.1531 15.9068C91.2554 16.2131 92.1659 16.7079 92.8848 17.3912C93.6037 18.0745 93.9631 19.0641 93.9631 20.36C93.9631 21.6559 93.6516 22.6808 93.0286 23.4348C92.4295 24.1887 91.5429 24.7189 90.3688 25.0252C89.1946 25.3315 87.7689 25.4846 86.0916 25.4846H75.5602ZM82.03 21.0315H85.8759C86.1635 21.0315 86.4151 20.9726 86.6307 20.8548C86.8703 20.7369 87.05 20.572 87.1699 20.36C87.3136 20.1479 87.3855 19.8887 87.3855 19.5824C87.3855 19.2761 87.3136 19.0169 87.1699 18.8049C87.05 18.5928 86.8703 18.4279 86.6307 18.3101C86.4151 18.1923 86.1635 18.1334 85.8759 18.1334H82.03V21.0315ZM82.03 14.069H85.3008C85.5884 14.069 85.84 14.0101 86.0556 13.8923C86.2713 13.7744 86.427 13.6095 86.5229 13.3975C86.6427 13.1854 86.7026 12.938 86.7026 12.6553C86.7026 12.2547 86.5708 11.9366 86.3072 11.701C86.0676 11.4654 85.7321 11.3476 85.3008 11.3476H82.03V14.069ZM101.647 25.0605C102.941 25.5789 104.426 25.8381 106.104 25.8381C107.805 25.8381 109.291 25.5789 110.561 25.0605C111.855 24.5422 112.933 23.8353 113.796 22.94C114.682 22.0211 115.341 20.9844 115.772 19.8298C116.228 18.6753 116.455 17.4619 116.455 16.1895C116.455 14.9172 116.228 13.7038 115.772 12.5492C115.341 11.3712 114.682 10.3344 113.796 9.43909C112.933 8.54374 111.855 7.83689 110.561 7.31853C109.291 6.80017 107.805 6.54099 106.104 6.54099C104.426 6.54099 102.941 6.80017 101.647 7.31853C100.353 7.83689 99.2626 8.54374 98.376 9.43909C97.5133 10.3344 96.8544 11.3712 96.3991 12.5492C95.9678 13.7038 95.7521 14.9172 95.7521 16.1895C95.7521 17.4619 95.9678 18.6753 96.3991 19.8298C96.8544 20.9844 97.5133 22.0211 98.376 22.94C99.2626 23.8353 100.353 24.5422 101.647 25.0605ZM103.192 18.3454C102.905 17.7328 102.761 17.0142 102.761 16.1895C102.761 15.3649 102.905 14.658 103.192 14.069C103.48 13.4564 103.875 12.9969 104.378 12.6906C104.882 12.3607 105.457 12.1958 106.104 12.1958C106.751 12.1958 107.326 12.3607 107.829 12.6906C108.332 12.9969 108.728 13.4564 109.015 14.069C109.303 14.658 109.446 15.3649 109.446 16.1895C109.446 17.0142 109.303 17.7328 109.015 18.3454C108.728 18.9345 108.332 19.3939 107.829 19.7238C107.326 20.0301 106.751 20.1832 106.104 20.1832C105.457 20.1832 104.882 20.0301 104.378 19.7238C103.875 19.3939 103.48 18.9345 103.192 18.3454ZM117.866 25.8381V19.9005C118.418 19.8769 118.897 19.7709 119.304 19.5824C119.711 19.3939 120.059 19.0758 120.346 18.6282C120.658 18.1569 120.898 17.4972 121.065 16.649C121.233 15.7772 121.353 14.658 121.425 13.2914L121.712 6.89442H137.491V16.1895V20.8371V24.1593V25.4847C137.491 28.5772 134.077 32.1114 134.077 32.1114C134.077 32.1114 130.662 28.5772 130.662 25.4846V24.1593V12.726H127.751L127.679 13.9983C127.559 16.2838 127.283 18.1923 126.852 19.7238C126.421 21.2553 125.81 22.4687 125.019 23.3641C124.228 24.2359 123.246 24.8603 122.072 25.2372C120.898 25.6142 119.496 25.8145 117.866 25.8381ZM147.922 6.89442H141.093V25.4846H147.347L153.278 16.1542V25.4846H160.107V6.89442H153.889L147.922 16.543V6.89442ZM163.698 6.89442H170.491V13.1501H171.57L175.703 6.89442H182.964L176.709 15.8008L183.575 25.4846H175.811L171.39 18.9109H170.491V25.4846H163.698V6.89442ZM185.95 16.5783C185.255 17.5208 184.908 18.6164 184.908 19.8652C184.908 20.9961 185.195 22.0211 185.77 22.94C186.346 23.8353 187.136 24.5422 188.143 25.0605C189.149 25.5789 190.275 25.8381 191.521 25.8381C192.767 25.8381 193.942 25.5671 195.044 25.0252C196.146 24.4597 197.116 23.6468 197.955 22.5865L198.099 23.2581C198.291 24.1063 198.698 24.7542 199.321 25.2019C199.968 25.626 200.902 25.8381 202.125 25.8381C202.508 25.8381 202.939 25.8027 203.419 25.732C203.922 25.6849 204.449 25.6025 205 25.4846V19.8298C204.521 19.7827 204.185 19.6413 203.994 19.4057C203.802 19.1465 203.706 18.6989 203.706 18.0627V14.4577C203.706 11.8424 202.879 9.87498 201.226 8.55552C199.597 7.2125 197.284 6.54099 194.289 6.54099C192.684 6.54099 191.174 6.74127 189.76 7.14181C188.37 7.5188 187.04 8.10785 185.77 8.90895L187.747 13.0794C188.754 12.4196 189.712 11.9249 190.623 11.595C191.557 11.2416 192.552 11.0648 193.606 11.0648C194.756 11.0648 195.583 11.2769 196.086 11.701C196.613 12.1251 196.877 12.7731 196.877 13.6449V14.2103C196.398 13.9747 195.823 13.798 195.152 13.6802C194.505 13.5624 193.81 13.5035 193.067 13.5035C191.485 13.5035 190.072 13.7745 188.826 14.3164C187.604 14.8583 186.645 15.6123 185.95 16.5783ZM196.625 19.7238C196.458 19.9359 196.242 20.1361 195.978 20.3246C195.667 20.5367 195.283 20.7134 194.828 20.8548C194.397 20.9726 193.977 21.0315 193.57 21.0315C193.139 21.0315 192.755 20.9608 192.42 20.8194C192.084 20.6545 191.821 20.4424 191.629 20.1832C191.438 19.9005 191.342 19.5942 191.342 19.2643C191.342 18.6517 191.617 18.1452 192.168 17.7446C192.743 17.3441 193.438 17.1438 194.253 17.1438C194.636 17.1438 195.068 17.1909 195.547 17.2852C196.05 17.3794 196.493 17.4972 196.877 17.6386V19.0169C196.877 19.2526 196.793 19.4882 196.625 19.7238ZM134.086 22.3921C133.445 22.3921 132.934 22.9665 132.964 23.6529L133.058 26.2011C133.084 26.7893 133.537 27.2517 134.086 27.2517C134.636 27.2517 135.088 26.7893 135.114 26.2011L135.208 23.6529C135.239 22.9665 134.727 22.3921 134.086 22.3921Z" fill="#F5BC25"/>
</svg>
